<svg width="82" height="84" viewBox="0 0 82 84" fill="none" xmlns="http://www.w3.org/2000/svg">
<path fill-rule="evenodd" clip-rule="evenodd" d="M9.2502 62.837C14.1752 62.837 18.1676 58.8075 18.1676 53.837C18.1676 48.8664 14.1752 44.837 9.2502 44.837C4.32524 44.837 0.332764 48.8664 0.332764 53.837C0.332764 58.8075 4.32524 62.837 9.2502 62.837ZM9.25005 59.0001C11.9861 59.0001 14.2042 56.7615 14.2042 54.0001C14.2042 51.2386 11.9861 49.0001 9.25005 49.0001C6.51396 49.0001 4.29592 51.2386 4.29592 54.0001C4.29592 56.7615 6.51396 59.0001 9.25005 59.0001Z" fill="#6826BC"/>
<path d="M62.7546 40.9725C62.7546 39.3308 64.0855 38 65.7271 38C67.3688 38 68.6996 39.3308 68.6996 40.9725V64H62.7546V40.9725Z" fill="#6826BC"/>
<path d="M34.0203 49.9817C34.0203 48.8872 34.9075 48 36.0019 48C37.0964 48 37.9836 48.8872 37.9836 49.9817V61.0183C37.9836 62.1128 37.0964 63 36.0019 63C34.9075 63 34.0203 62.1128 34.0203 61.0183V49.9817Z" fill="#6826BC"/>
<path d="M18.4722 64L17.176 60L37.9834 60V64H18.4722Z" fill="#6826BC"/>
<path d="M16.1853 45.9817C16.1853 44.8872 17.0725 44 18.167 44C19.2614 44 20.1486 44.8872 20.1486 45.9817V64H16.1853V45.9817Z" fill="#6826BC"/>
<path d="M39.9651 39.9817C39.9651 38.8872 40.8523 38 41.9467 38C43.0412 38 43.9284 38.8872 43.9284 39.9817V64H39.9651V39.9817Z" fill="#6826BC"/>
<ellipse cx="66.0067" cy="30.8479" rx="15.9932" ry="16.1413" fill="#6826BC"/>
<path d="M54.4562 37.6955L57.2994 41.2924L49.6582 41.9179L54.4562 37.6955Z" fill="#6826BC"/>
<path d="M75.0297 7.12861C75.0297 7.12861 75.8025 5.62688 74.914 5.26818C74.0255 4.90948 73.1347 5.71006 73.1347 5.71006L67.4588 12.548C67.2611 12.8896 67.3424 12.9149 67.7296 12.7506L75.0297 7.12861Z" fill="#6826BC"/>
<path d="M56.357 6.76996C56.357 6.76996 55.5842 5.26823 56.4727 4.90954C57.3612 4.55084 58.252 5.35142 58.252 5.35142L63.9279 12.1894C64.1256 12.531 64.0443 12.5563 63.6572 12.392L56.357 6.76996Z" fill="#6826BC"/>
<path d="M67.214 2.46578C67.214 2.46578 66.7084 0.852388 65.8288 1.23284C64.9492 1.6133 64.8802 2.81511 64.8802 2.81511L65.6575 11.7009C65.7571 12.0836 65.8322 12.0434 65.991 11.651L67.214 2.46578Z" fill="#6826BC"/>
<path d="M78.4466 29.0544C78.1623 34.937 73.3525 38.6794 70.9831 39.8152V47.7065L68.8507 48.0652V41.6087C68.8507 39.0261 66.8367 38.3804 65.8297 38.3804C63.5551 38.5239 62.868 40.5924 62.8088 41.6087V48.0652L60.3209 47.5272V39.8152C54.3501 37.8065 52.8574 31.8044 52.8574 29.0544C53.2839 19.0109 61.5648 16.5 65.652 16.5C76.3142 16.9304 78.6243 25.0489 78.4466 29.0544Z" fill="#FFFDFD"/>
<path d="M58.8988 30.4266C59.6096 30.7227 63.3414 30.4266 63.3414 30.4266C59.3608 25.1179 63.8745 21.7012 65.6515 21.1631C67.4285 20.6251 70.2718 21.7553 70.9826 22.1766C71.6934 22.5979 71.6934 23.4946 71.338 23.9701C70.9826 24.4456 70.4495 24.6249 68.8502 24.1494C67.2509 23.674 64.9407 24.2662 64.4076 25.5842C63.8745 26.9023 64.6988 29.3303 66.7177 29.9512C67.9255 30.3226 68.6725 29.9512 70.0941 29.9512C71.5157 29.9512 71.7526 32.0407 70.8049 32.7581C70.8049 32.7581 60.8536 33.5381 59.0765 33.2962C57.2995 33.0542 58.188 30.1305 58.8988 30.4266Z" fill="#6826BC"/>
<path d="M45.7212 35.0606C45.2947 35.778 44.2403 35.3595 43.7665 35.0606C42.9135 34.6301 42.2264 35.1204 41.9894 35.4193C41.1365 36.4236 39.5016 36.0769 38.7908 35.778C36.6584 35.3475 36.7176 33.9247 37.0138 33.2671C37.4403 32.4062 38.3762 32.6693 38.7908 32.9084C39.7859 33.9127 41.3379 33.0877 41.9894 32.5497C42.9846 31.8323 44.7735 32.729 45.5435 33.2671C46.3965 33.6975 46.0174 34.6421 45.7212 35.0606Z" fill="#6826BC"/>
<ellipse cx="12.3407" cy="44.4783" rx="2.13243" ry="2.15217" fill="#FFFDFD"/>
<ellipse cx="12.3415" cy="44.4783" rx="1.27946" ry="1.2913" fill="#6826BC"/>
<ellipse cx="6.72618" cy="44.4783" rx="2.13243" ry="2.15217" fill="#FFFDFD"/>
<ellipse cx="6.72672" cy="44.4783" rx="1.27946" ry="1.2913" fill="#6826BC"/>
<ellipse cx="34.661" cy="63.8477" rx="2.13243" ry="2.15217" fill="#FFFDFD"/>
<ellipse cx="34.6615" cy="63.8477" rx="1.27946" ry="1.2913" fill="#6826BC"/>
<ellipse cx="28.69" cy="63.8477" rx="2.13243" ry="2.15217" fill="#FFFDFD"/>
<ellipse cx="28.6899" cy="63.8477" rx="1.27946" ry="1.2913" fill="#6826BC"/>
<path d="M16.3861 70.175C16.0661 70.095 15.7311 70.055 15.3811 70.055C14.8711 70.055 14.4711 70.145 14.1811 70.325C13.8911 70.505 13.7461 70.75 13.7461 71.06C13.7461 71.32 13.8761 71.525 14.1361 71.675C14.4061 71.825 14.8261 71.99 15.3961 72.17C15.9761 72.35 16.4511 72.525 16.8211 72.695C17.2011 72.865 17.5261 73.115 17.7961 73.445C18.0661 73.775 18.2011 74.195 18.2011 74.705C18.2011 75.125 18.0861 75.52 17.8561 75.89C17.6261 76.25 17.2511 76.55 16.7311 76.79C16.2211 77.02 15.5661 77.135 14.7661 77.135C14.2961 77.135 13.8661 77.09 13.4761 77C13.0861 76.9 12.6311 76.75 12.1111 76.55L11.9161 76.46L12.4111 75.125L12.6361 75.215C13.5461 75.555 14.2961 75.725 14.8861 75.725C15.4261 75.725 15.8611 75.635 16.1911 75.455C16.5211 75.265 16.6861 75.015 16.6861 74.705C16.6961 74.405 16.5661 74.18 16.2961 74.03C16.0261 73.87 15.5911 73.7 14.9911 73.52C14.4211 73.34 13.9511 73.165 13.5811 72.995C13.2111 72.825 12.8961 72.58 12.6361 72.26C12.3761 71.93 12.2461 71.51 12.2461 71C12.2461 70.55 12.3711 70.15 12.6211 69.8C12.8711 69.45 13.2311 69.175 13.7011 68.975C14.1711 68.775 14.7161 68.675 15.3361 68.675C15.8661 68.675 16.3161 68.72 16.6861 68.81C17.0561 68.89 17.4161 68.99 17.7661 69.11L17.9311 69.17L17.4511 70.505C17.0711 70.355 16.7161 70.245 16.3861 70.175ZM22.2844 75.965C22.5744 75.965 22.9444 75.905 23.3944 75.785L23.5894 76.805C23.2394 76.905 22.9394 76.985 22.6894 77.045C22.4494 77.105 22.2094 77.135 21.9694 77.135C21.1394 77.135 20.5844 76.96 20.3044 76.61C20.0344 76.26 19.8994 75.775 19.8994 75.155V72.365H18.9394V71.24H19.8994V69.59H21.3394V71.24H23.3344V72.365H21.3394V75.125C21.3394 75.685 21.6544 75.965 22.2844 75.965ZM24.7148 71.54C25.4948 71.28 26.1348 71.15 26.6348 71.15C27.6048 71.15 28.2798 71.35 28.6598 71.75C29.0498 72.15 29.2448 72.72 29.2448 73.46V77H28.1048L27.9398 76.595C27.4898 76.955 26.9298 77.135 26.2598 77.135C25.6398 77.135 25.1448 76.975 24.7748 76.655C24.4048 76.335 24.2198 75.925 24.2198 75.425C24.2198 74.865 24.4248 74.43 24.8348 74.12C25.2548 73.8 25.8498 73.62 26.6198 73.58L27.7448 73.52C27.7448 73.02 27.6548 72.68 27.4748 72.5C27.2948 72.32 26.9398 72.23 26.4098 72.23C25.9598 72.23 25.4698 72.33 24.9398 72.53L24.7148 71.54ZM27.5348 75.875C27.6648 75.805 27.7548 75.755 27.8048 75.725V74.495L26.7848 74.57C26.0348 74.61 25.6598 74.86 25.6598 75.32C25.6598 75.55 25.7448 75.73 25.9148 75.86C26.0848 75.99 26.3198 76.055 26.6198 76.055C26.8198 76.055 26.9898 76.04 27.1298 76.01C27.2698 75.98 27.4048 75.935 27.5348 75.875ZM30.607 71.24H31.627L31.807 71.66C32.337 71.32 32.902 71.15 33.502 71.15C33.872 71.15 34.222 71.225 34.552 71.375L34.267 72.68L34.207 72.695C33.867 72.495 33.457 72.395 32.977 72.395C32.647 72.395 32.332 72.45 32.032 72.56V77H30.607V71.24ZM38.1633 75.965C38.4533 75.965 38.8233 75.905 39.2733 75.785L39.4683 76.805C39.1183 76.905 38.8183 76.985 38.5683 77.045C38.3283 77.105 38.0883 77.135 37.8483 77.135C37.0183 77.135 36.4633 76.96 36.1833 76.61C35.9133 76.26 35.7783 75.775 35.7783 75.155V72.365H34.8183V71.24H35.7783V69.59H37.2183V71.24H39.2133V72.365H37.2183V75.125C37.2183 75.685 37.5333 75.965 38.1633 75.965ZM49.2534 70.07H45.3834V72.515H48.7884V73.865H45.3834V77H43.9134V68.75H49.2534V70.07ZM50.4234 71.24H51.4434L51.6234 71.66C52.1534 71.32 52.7184 71.15 53.3184 71.15C53.6884 71.15 54.0384 71.225 54.3684 71.375L54.0834 72.68L54.0234 72.695C53.6834 72.495 53.2734 72.395 52.7934 72.395C52.4634 72.395 52.1484 72.45 51.8484 72.56V77H50.4234V71.24ZM59.4647 76.76C59.0147 77.01 58.4947 77.135 57.9047 77.135C57.3147 77.135 56.7947 77.01 56.3447 76.76C55.9047 76.5 55.5597 76.145 55.3097 75.695C55.0697 75.245 54.9497 74.73 54.9497 74.15C54.9497 73.22 55.2197 72.49 55.7597 71.96C56.2997 71.42 57.0197 71.15 57.9197 71.15C58.8197 71.15 59.5347 71.42 60.0647 71.96C60.6047 72.5 60.8747 73.225 60.8747 74.135C60.8747 74.725 60.7497 75.245 60.4997 75.695C60.2597 76.145 59.9147 76.5 59.4647 76.76ZM58.9547 72.77C58.6747 72.44 58.3247 72.275 57.9047 72.275C57.4947 72.275 57.1447 72.44 56.8547 72.77C56.5747 73.1 56.4347 73.56 56.4347 74.15C56.4347 74.73 56.5747 75.185 56.8547 75.515C57.1347 75.835 57.4847 75.995 57.9047 75.995C58.3447 75.995 58.6997 75.835 58.9697 75.515C59.2497 75.195 59.3897 74.74 59.3897 74.15C59.3897 73.55 59.2447 73.09 58.9547 72.77ZM62.025 71.24H63.045L63.225 71.66C63.285 71.64 63.41 71.59 63.6 71.51C63.79 71.43 64.015 71.355 64.275 71.285C64.535 71.205 64.81 71.165 65.1 71.165C65.75 71.165 66.245 71.36 66.585 71.75C67.365 71.36 68.065 71.165 68.685 71.165C69.505 71.165 70.035 71.41 70.275 71.9C70.525 72.39 70.65 73 70.65 73.73V77H69.225V73.55C69.225 73.25 69.16 72.98 69.03 72.74C68.9 72.5 68.66 72.38 68.31 72.38C68.13 72.38 67.94 72.41 67.74 72.47C67.54 72.52 67.285 72.61 66.975 72.74C67.045 73.08 67.08 73.43 67.08 73.79V77H65.64V73.55C65.64 73.25 65.57 72.98 65.43 72.74C65.3 72.5 65.06 72.38 64.71 72.38C64.57 72.38 64.405 72.405 64.215 72.455C64.035 72.495 63.78 72.575 63.45 72.695V77H62.025V71.24ZM63.5072 99L66.6122 90.75H68.0372L71.1422 99H69.6572L68.8172 96.825H65.7722L64.9472 99H63.5072ZM66.2372 95.505H68.3372L67.2872 92.415L66.2372 95.505Z" fill="#6826BC"/>
</svg>
