<svg width="108" height="108" viewBox="0 0 108 108" fill="none" xmlns="http://www.w3.org/2000/svg">
<path fill-rule="evenodd" clip-rule="evenodd" d="M11.412 78.0702C17.5309 78.0702 22.4913 73.0639 22.4913 66.8884C22.4913 60.7128 17.5309 55.7065 11.412 55.7065C5.29312 55.7065 0.332764 60.7128 0.332764 66.8884C0.332764 73.0639 5.29312 78.0702 11.412 78.0702ZM11.4118 73.3031C14.8112 73.3031 17.567 70.5219 17.567 67.091C17.567 63.6601 14.8112 60.8789 11.4118 60.8789C8.01242 60.8789 5.25667 63.6601 5.25667 67.091C5.25667 70.5219 8.01242 73.3031 11.4118 73.3031Z" fill="#F1F1F1"/>
<path d="M77.8872 50.9055C77.8872 48.8659 79.5407 47.2124 81.5803 47.2124C83.6199 47.2124 85.2734 48.8659 85.2734 50.9055V79.5155H77.8872V50.9055Z" fill="#F1F1F1"/>
<path d="M42.187 62.0983C42.187 60.7385 43.2893 59.6362 44.6491 59.6362C46.0088 59.6362 47.1111 60.7385 47.1111 62.0983V75.8106C47.1111 77.1703 46.0088 78.2726 44.6491 78.2726C43.2893 78.2726 42.187 77.1703 42.187 75.8106V62.0983Z" fill="#F1F1F1"/>
<path d="M22.8697 79.5151L21.2593 74.5454H47.1109V79.5151H22.8697Z" fill="#F1F1F1"/>
<path d="M20.0283 57.1286C20.0283 55.7688 21.1306 54.6665 22.4904 54.6665C23.8501 54.6665 24.9524 55.7688 24.9524 57.1286V79.515H20.0283V57.1286Z" fill="#F1F1F1"/>
<path d="M49.573 49.6745C49.573 48.3147 50.6753 47.2124 52.0351 47.2124C53.3948 47.2124 54.4971 48.3147 54.4971 49.6745V79.5155H49.573V49.6745Z" fill="#F1F1F1"/>
<ellipse cx="81.9278" cy="38.3264" rx="19.8704" ry="20.0544" fill="#F1F1F1"/>
<path d="M67.5771 46.8335L71.1096 51.3024L61.616 52.0796L67.5771 46.8335Z" fill="#F1F1F1"/>
<path d="M93.1382 8.85656C93.1382 8.85656 94.0983 6.99077 92.9944 6.54512C91.8905 6.09947 90.7837 7.09412 90.7837 7.09412L83.7319 15.5898C83.4862 16.0142 83.5872 16.0456 84.0682 15.8415L93.1382 8.85656Z" fill="#F1F1F1"/>
<path d="M69.9387 8.41125C69.9387 8.41125 68.9786 6.54546 70.0825 6.09981C71.1864 5.65416 72.2932 6.64881 72.2932 6.64881L79.345 15.1444C79.5907 15.5689 79.4897 15.6003 79.0087 15.3962L69.9387 8.41125Z" fill="#F1F1F1"/>
<path d="M83.4279 3.06328C83.4279 3.06328 82.7996 1.05875 81.7068 1.53144C80.614 2.00413 80.5282 3.49729 80.5282 3.49729L81.494 14.5372C81.6177 15.0127 81.7111 14.9628 81.9083 14.4752L83.4279 3.06328Z" fill="#F1F1F1"/>
<path d="M97.3835 36.0979C97.0302 43.4066 91.0544 48.0562 88.1106 49.4674V59.2718L85.4612 59.7175V51.6957C85.4612 48.487 82.959 47.6848 81.7079 47.6848C78.8819 47.8631 78.0282 50.433 77.9546 51.6957V59.7175L74.8637 59.049V49.4674C67.4454 46.9718 65.5908 39.5145 65.5908 36.0979C66.1207 23.6196 76.4092 20.5 81.4871 20.5C94.7341 21.0348 97.6043 31.1214 97.3835 36.0979Z" fill="#6826BC"/>
<path d="M73.0969 37.8023C73.98 38.1702 78.6164 37.8023 78.6164 37.8023C73.6709 31.2066 79.2788 26.9616 81.4866 26.2931C83.6944 25.6246 87.2269 27.0289 88.1101 27.5523C88.9932 28.0757 88.9932 29.1898 88.5516 29.7806C88.11 30.3713 87.4477 30.5941 85.4607 30.0034C83.4736 29.4127 80.6034 30.1484 79.9411 31.786C79.2788 33.4235 80.3028 36.4402 82.8113 37.2116C84.3119 37.6731 85.2399 37.2116 87.0061 37.2116C88.7724 37.2116 89.0668 39.8077 87.8893 40.699C87.8893 40.699 75.5255 41.6681 73.3176 41.3675C71.1098 41.0669 72.2137 37.4344 73.0969 37.8023Z" fill="#F1F1F1"/>
<path d="M56.7245 43.5602C56.1946 44.4515 54.8846 43.9315 54.2959 43.5602C53.2361 43.0254 52.3824 43.6344 52.0881 44.0058C51.0283 45.2536 48.9971 44.8229 48.114 44.4515C45.4646 43.9167 45.5382 42.1489 45.9062 41.3319C46.436 40.2623 47.5988 40.5891 48.114 40.8862C49.3504 42.1341 51.2785 41.1091 52.0881 40.4406C53.3244 39.5493 55.547 40.6634 56.5037 41.3319C57.5635 41.8667 57.0925 43.0402 56.7245 43.5602Z" fill="#F1F1F1"/>
<ellipse cx="15.2517" cy="55.2608" rx="2.64939" ry="2.67392" fill="#6826BC"/>
<ellipse cx="15.2527" cy="55.2611" rx="1.58963" ry="1.60435" fill="#F1F1F1"/>
<ellipse cx="8.2761" cy="55.2608" rx="2.64939" ry="2.67392" fill="#6826BC"/>
<ellipse cx="8.27689" cy="55.2611" rx="1.58963" ry="1.60435" fill="#F1F1F1"/>
<ellipse cx="42.9831" cy="79.3258" rx="2.64939" ry="2.67392" fill="#6826BC"/>
<ellipse cx="42.9837" cy="79.3255" rx="1.58963" ry="1.60435" fill="#F1F1F1"/>
<ellipse cx="35.5647" cy="79.3258" rx="2.64939" ry="2.67392" fill="#6826BC"/>
<ellipse cx="35.5642" cy="79.3255" rx="1.58963" ry="1.60435" fill="#F1F1F1"/>
<path d="M8.5718 95.7625C8.0918 95.6425 7.5893 95.5825 7.0643 95.5825C6.2993 95.5825 5.6993 95.7175 5.2643 95.9875C4.8293 96.2575 4.6118 96.625 4.6118 97.09C4.6118 97.48 4.8068 97.7875 5.1968 98.0125C5.6018 98.2375 6.2318 98.485 7.0868 98.755C7.9568 99.025 8.6693 99.2875 9.2243 99.5425C9.7943 99.7975 10.2818 100.173 10.6868 100.668C11.0918 101.163 11.2943 101.793 11.2943 102.558C11.2943 103.188 11.1218 103.78 10.7768 104.335C10.4318 104.875 9.8693 105.325 9.0893 105.685C8.3243 106.03 7.3418 106.202 6.1418 106.202C5.4368 106.202 4.7918 106.135 4.2068 106C3.6218 105.85 2.9393 105.625 2.1593 105.325L1.8668 105.19L2.6093 103.188L2.9468 103.323C4.3118 103.833 5.4368 104.088 6.3218 104.088C7.1318 104.088 7.7843 103.953 8.2793 103.683C8.7743 103.397 9.0218 103.022 9.0218 102.558C9.0368 102.108 8.8418 101.77 8.4368 101.545C8.0318 101.305 7.3793 101.05 6.4793 100.78C5.6243 100.51 4.9193 100.248 4.3643 99.9925C3.8093 99.7375 3.3368 99.37 2.9468 98.89C2.5568 98.395 2.3618 97.765 2.3618 97C2.3618 96.325 2.5493 95.725 2.9243 95.2C3.2993 94.675 3.8393 94.2625 4.5443 93.9625C5.2493 93.6625 6.0668 93.5125 6.9968 93.5125C7.7918 93.5125 8.4668 93.58 9.0218 93.715C9.5768 93.835 10.1168 93.985 10.6418 94.165L10.8893 94.255L10.1693 96.2575C9.5993 96.0325 9.0668 95.8675 8.5718 95.7625ZM17.4192 104.448C17.8542 104.448 18.4092 104.358 19.0842 104.177L19.3767 105.708C18.8517 105.858 18.4017 105.978 18.0267 106.067C17.6667 106.157 17.3067 106.202 16.9467 106.202C15.7017 106.202 14.8692 105.94 14.4492 105.415C14.0442 104.89 13.8417 104.162 13.8417 103.232V99.0475H12.4017V97.36H13.8417V94.885H16.0017V97.36H18.9942V99.0475H16.0017V103.188C16.0017 104.028 16.4742 104.448 17.4192 104.448ZM21.0649 97.81C22.2349 97.42 23.1949 97.225 23.9449 97.225C25.3999 97.225 26.4124 97.525 26.9824 98.125C27.5674 98.725 27.8599 99.58 27.8599 100.69V106H26.1499L25.9024 105.393C25.2274 105.933 24.3874 106.202 23.3824 106.202C22.4524 106.202 21.7099 105.963 21.1549 105.483C20.5999 105.002 20.3224 104.388 20.3224 103.638C20.3224 102.798 20.6299 102.145 21.2449 101.68C21.8749 101.2 22.7674 100.93 23.9224 100.87L25.6099 100.78C25.6099 100.03 25.4749 99.52 25.2049 99.25C24.9349 98.98 24.4024 98.845 23.6074 98.845C22.9324 98.845 22.1974 98.995 21.4024 99.295L21.0649 97.81ZM25.2949 104.312C25.4899 104.208 25.6249 104.133 25.6999 104.088V102.243L24.1699 102.355C23.0449 102.415 22.4824 102.79 22.4824 103.48C22.4824 103.825 22.6099 104.095 22.8649 104.29C23.1199 104.485 23.4724 104.583 23.9224 104.583C24.2224 104.583 24.4774 104.56 24.6874 104.515C24.8974 104.47 25.0999 104.403 25.2949 104.312ZM29.9032 97.36H31.4332L31.7032 97.99C32.4982 97.48 33.3457 97.225 34.2457 97.225C34.8007 97.225 35.3257 97.3375 35.8207 97.5625L35.3932 99.52L35.3032 99.5425C34.7932 99.2425 34.1782 99.0925 33.4582 99.0925C32.9632 99.0925 32.4907 99.175 32.0407 99.34V106H29.9032V97.36ZM41.2376 104.448C41.6726 104.448 42.2276 104.358 42.9026 104.177L43.1951 105.708C42.6701 105.858 42.2201 105.978 41.8451 106.067C41.4851 106.157 41.1251 106.202 40.7651 106.202C39.5201 106.202 38.6876 105.94 38.2676 105.415C37.8626 104.89 37.6601 104.162 37.6601 103.232V99.0475H36.2201V97.36H37.6601V94.885H39.8201V97.36H42.8126V99.0475H39.8201V103.188C39.8201 104.028 40.2926 104.448 41.2376 104.448ZM57.8728 95.605H52.0678V99.2725H57.1753V101.298H52.0678V106H49.8628V93.625H57.8728V95.605ZM59.6278 97.36H61.1578L61.4278 97.99C62.2228 97.48 63.0703 97.225 63.9703 97.225C64.5253 97.225 65.0503 97.3375 65.5453 97.5625L65.1178 99.52L65.0278 99.5425C64.5178 99.2425 63.9028 99.0925 63.1828 99.0925C62.6878 99.0925 62.2153 99.175 61.7653 99.34V106H59.6278V97.36ZM73.1897 105.64C72.5147 106.015 71.7347 106.202 70.8497 106.202C69.9647 106.202 69.1847 106.015 68.5097 105.64C67.8497 105.25 67.3322 104.718 66.9572 104.042C66.5972 103.368 66.4172 102.595 66.4172 101.725C66.4172 100.33 66.8222 99.235 67.6322 98.44C68.4422 97.63 69.5222 97.225 70.8722 97.225C72.2222 97.225 73.2947 97.63 74.0897 98.44C74.8997 99.25 75.3047 100.338 75.3047 101.703C75.3047 102.588 75.1172 103.368 74.7422 104.042C74.3822 104.718 73.8647 105.25 73.1897 105.64ZM72.4247 99.655C72.0047 99.16 71.4797 98.9125 70.8497 98.9125C70.2347 98.9125 69.7097 99.16 69.2747 99.655C68.8547 100.15 68.6447 100.84 68.6447 101.725C68.6447 102.595 68.8547 103.278 69.2747 103.773C69.6947 104.253 70.2197 104.493 70.8497 104.493C71.5097 104.493 72.0422 104.253 72.4472 103.773C72.8672 103.293 73.0772 102.61 73.0772 101.725C73.0772 100.825 72.8597 100.135 72.4247 99.655ZM77.0302 97.36H78.5602L78.8302 97.99C78.9202 97.96 79.1077 97.885 79.3927 97.765C79.6777 97.645 80.0152 97.5325 80.4052 97.4275C80.7952 97.3075 81.2077 97.2475 81.6427 97.2475C82.6177 97.2475 83.3602 97.54 83.8702 98.125C85.0402 97.54 86.0902 97.2475 87.0202 97.2475C88.2502 97.2475 89.0452 97.615 89.4052 98.35C89.7802 99.085 89.9677 100 89.9677 101.095V106H87.8302V100.825C87.8302 100.375 87.7327 99.97 87.5377 99.61C87.3427 99.25 86.9827 99.07 86.4577 99.07C86.1877 99.07 85.9027 99.115 85.6027 99.205C85.3027 99.28 84.9202 99.415 84.4552 99.61C84.5602 100.12 84.6127 100.645 84.6127 101.185V106H82.4527V100.825C82.4527 100.375 82.3477 99.97 82.1377 99.61C81.9427 99.25 81.5827 99.07 81.0577 99.07C80.8477 99.07 80.6002 99.1075 80.3152 99.1825C80.0452 99.2425 79.6627 99.3625 79.1677 99.5425V106H77.0302V97.36ZM96.2515 106L100.909 93.625H103.046L107.704 106H105.476L104.216 102.738H99.649L98.4115 106H96.2515ZM100.346 100.758H103.496L101.921 96.1225L100.346 100.758Z" fill="#F1F1F1"/>
</svg>
